PathFileType	4	(X/Y/Z)	SUBJ32_2_walk_RCNL2025.trc
DataRate	CameraRate	NumFrames	NumMarkers	Units	OrigDataRate	OrigDataStartFrame	OrigNumFrames
100	100	9	25	mm	100	108	428
Frame#	Time	R_Shoulder			L_Shoulder			C7			J_Notch			R_Elbow			L_Elbow			R_Wrist			L_Wrist			R_Asis			L_Asis			Sacral			Thoracic			Sternum			R_Thigh_Lateral			R_Knee_Lateral			R_Shank_Lateral			R_Ankle_Lateral			R_Heel			R_Toe			L_Thigh_Lateral			L_Knee_Lateral			L_Shank_Lateral			L_Ankle_Lateral			L_Heel			L_Toe		
		X1	Y1	Z1	X2	Y2	Z2	X3	Y3	Z3	X4	Y4	Z4	X5	Y5	Z5	X6	Y6	Z6	X7	Y7	Z7	X8	Y8	Z8	X9	Y9	Z9	X10	Y10	Z10	X11	Y11	Z11	X12	Y12	Z12	X13	Y13	Z13	X14	Y14	Z14	X15	Y15	Z15	X16	Y16	Z16	X17	Y17	Z17	X18	Y18	Z18	X19	Y19	Z19	X20	Y20	Z20	X21	Y21	Z21	X22	Y22	Z22	X23	Y23	Z23	X24	Y24	Z24	X25	Y25	Z25
108	1.07000000	-881.450684	1368.204956	-32.661182	-900.541992	1367.432983	-410.934479	-935.586914	1436.644653	-209.822372	-800.439880	1347.196533	-222.671082	-963.643250	1042.823242	65.243393	-1003.568787	1056.908569	-493.493683	-921.241241	796.593231	87.540749	-962.167389	801.914490	-512.968246	-811.423279	909.931763	-104.348930	-839.872559	903.471313	-355.971466	-1032.990479	954.582458	-219.384338	-1021.768921	1212.209595	-214.722565	-736.761475	1112.900269	-225.326981	-856.317993	549.789368	-9.377992	-844.686157	466.777832	-49.313923	-933.831421	346.886841	21.123613	-1083.282349	176.918930	-86.280510	-1132.023315	197.565689	-138.694168	-993.926819	85.414734	-116.215485	-911.288696	557.600586	-442.831970	-901.106873	465.250458	-395.271545	-921.281311	241.157196	-411.617981	-944.715149	59.009514	-317.858887	-994.046875	51.127007	-270.445404	-808.613831	43.164001	-295.592926
109	1.08000000	-871.882996	1368.364136	-32.644855	-889.214355	1368.421509	-411.071869	-925.308350	1437.070312	-209.880127	-790.118774	1347.694336	-222.483521	-954.899597	1042.931396	64.476555	-990.253845	1057.757324	-495.569244	-912.859589	796.704285	86.989342	-946.693756	803.222443	-515.705475	-795.242310	910.950989	-105.846695	-830.335571	903.508911	-356.462280	-1022.929626	955.098633	-219.388870	-1011.537903	1212.680176	-215.403793	-726.730774	1113.284668	-225.496597	-838.642090	551.809509	-9.801701	-826.256104	468.701050	-50.494743	-911.641479	345.329163	20.071341	-1053.994751	169.051422	-87.690033	-1103.618774	186.926804	-140.292374	-959.380371	83.344772	-116.739563	-906.601013	557.597229	-442.768066	-897.972473	465.153931	-395.167084	-920.305237	241.178207	-411.412750	-944.783325	58.965618	-317.616638	-993.992676	51.190479	-269.946960	-808.615295	43.217274	-295.702362
110	1.09000000	-862.292480	1368.323242	-32.587486	-877.915344	1369.210815	-411.156342	-915.039429	1437.302124	-209.887650	-779.822144	1347.983398	-222.257767	-946.188477	1042.835327	63.745651	-976.963196	1058.426514	-497.558258	-904.521545	796.611145	86.457348	-931.324249	804.341553	-518.286728	-779.228210	911.671021	-107.452446	-820.840393	903.374268	-356.902618	-1012.903992	955.429688	-219.322464	-1001.331238	1212.965698	-215.991150	-716.733154	1113.461914	-225.667328	-821.312134	553.749695	-10.169806	-808.289490	470.431274	-51.596691	-889.336853	343.305481	18.994106	-1023.955261	160.698563	-89.124138	-1074.224487	175.748260	-141.992188	-924.405273	81.107780	-117.126534	-901.793884	557.509338	-442.661224	-894.725159	465.028870	-395.020172	-919.235657	241.202454	-411.194244	-944.826965	58.962376	-317.371002	-993.911316	51.221588	-269.398895	-808.609680	43.211842	-295.760254
111	1.10000000	-852.662598	1368.079834	-32.492290	-866.640808	1369.793091	-411.188660	-904.770630	1437.336182	-209.847458	-769.541809	1348.057983	-221.996902	-937.496948	1042.534912	63.054890	-963.697937	1058.908936	-499.455688	-896.219391	796.312592	85.944836	-916.064087	805.261566	-520.708771	-763.848083	912.058167	-109.026375	-811.378296	903.065491	-357.289062	-1002.902649	955.569946	-219.185226	-991.139038	1213.062378	-216.479874	-706.759766	1113.425903	-225.842880	-804.376587	555.558533	-10.505492	-790.809509	471.926514	-52.623009	-866.946716	340.899689	17.896276	-993.167969	152.027374	-90.552040	-1043.848389	164.200348	-143.768890	-889.029236	78.815613	-117.329308	-896.836182	557.345459	-442.525299	-891.348694	464.866547	-394.836761	-918.056763	241.216171	-410.969696	-944.844482	59.003021	-317.124695	-993.805237	51.245224	-268.840240	-808.597900	43.146336	-295.759491
112	1.11000000	-842.978699	1367.633911	-32.361145	-855.385864	1370.163818	-411.168457	-894.492981	1437.170532	-209.761002	-759.269592	1347.915161	-221.702469	-928.812256	1042.031494	62.408974	-950.459351	1059.200439	-501.256561	-887.944611	795.809479	85.452824	-900.917725	805.975769	-522.970245	-749.612366	912.079285	-110.423363	-801.941040	902.582336	-357.617676	-992.914185	955.515991	-218.976990	-980.951233	1212.968384	-216.865631	-696.801514	1113.172852	-226.024506	-787.895447	557.181396	-10.829086	-773.845581	473.146851	-53.578823	-844.553345	338.204620	16.794365	-961.643982	143.206116	-91.934158	-1012.513489	152.459122	-145.575760	-853.278320	76.582825	-117.330551	-891.708801	557.116028	-442.373138	-887.834167	464.659851	-394.622223	-916.758789	241.207947	-410.745056	-944.838501	59.086517	-316.878571	-993.682373	51.284492	-268.302460	-808.583069	43.030380	-295.706299
113	1.12000000	-833.228271	1366.987183	-32.194454	-844.145203	1370.320923	-411.094116	-884.198059	1436.805298	-209.628540	-748.997498	1347.554321	-221.374420	-920.121765	1041.328247	61.812996	-937.249207	1059.300537	-502.955872	-879.688141	795.104645	84.983307	-885.888794	806.481323	-525.071350	-737.026245	911.709351	-111.518295	-792.520630	901.926636	-357.884552	-982.926697	955.266541	-218.697388	-970.757935	1212.683716	-217.144623	-686.848938	1112.701538	-226.211014	-771.939819	558.560974	-11.156328	-757.431580	474.055023	-54.469810	-822.292542	335.316986	15.711817	-929.403625	134.402756	-93.224335	-980.258484	140.705933	-147.347870	-817.185242	74.522079	-117.137787	-886.404419	556.830322	-442.214661	-884.178894	464.403839	-394.380676	-915.337402	241.170486	-410.524048	-944.814636	59.208740	-316.631744	-993.553223	51.357594	-267.805420	-808.569519	42.882282	-295.618195
114	1.13000000	-823.400757	1366.144165	-31.991096	-832.913208	1370.266113	-410.962708	-873.877869	1436.242798	-209.449051	-738.717957	1346.977783	-221.011108	-911.413269	1040.430420	61.272358	-924.069641	1059.211548	-504.548492	-871.440277	794.202881	84.539257	-870.980682	806.779266	-527.013947	-726.511536	910.939392	-112.224213	-783.109253	901.102417	-358.085846	-972.927673	954.822571	-218.345749	-960.549255	1212.210815	-217.313614	-676.892273	1112.014282	-226.398865	-756.589905	559.638428	-11.497253	-741.602905	474.616821	-55.301250	-800.327637	332.323608	14.674944	-896.480042	125.783798	-94.373062	-947.139343	129.126114	-149.008408	-780.796448	72.739098	-116.776520	-880.926453	556.494263	-442.055054	-880.384644	464.096069	-394.114319	-913.793701	241.101669	-410.307343	-944.779480	59.363907	-316.381866	-993.427917	51.476799	-267.356354	-808.561401	42.724163	-295.518097
115	1.14000000	-813.487793	1365.111450	-31.748434	-821.683899	1370.003784	-410.770264	-863.525208	1435.487793	-209.220154	-728.423340	1346.191040	-220.609406	-902.674500	1039.345093	60.792683	-910.923279	1058.939209	-506.029022	-863.190826	793.111176	84.124573	-856.196533	806.874420	-528.801025	-718.303162	909.784729	-112.500916	-773.698853	900.115967	-358.218384	-962.904053	954.187439	-217.921127	-950.315552	1211.553955	-217.369965	-666.921448	1111.116333	-226.582306	-741.932007	560.354248	-11.856192	-726.392151	474.802551	-56.077461	-778.807312	329.286407	13.710509	-862.923340	117.512535	-95.331696	-913.232056	117.906204	-150.476578	-744.176086	71.328468	-116.283821	-875.286621	556.110168	-441.894043	-876.456604	463.736938	-393.823456	-912.134521	241.005173	-410.091644	-944.739441	59.545975	-316.124969	-993.313965	51.649361	-266.951111	-808.561768	42.575306	-295.426453
116	1.15000000	-803.482971	1363.897705	-31.462355	-810.451355	1369.541382	-410.511627	-853.133606	1434.547119	-208.938141	-718.106445	1345.202148	-220.164780	-893.893005	1038.081543	60.379726	-897.813049	1058.492676	-507.391907	-854.929138	791.838165	83.743984	-841.539642	806.775299	-530.436523	-712.339355	908.289673	-112.354370	-764.281006	898.975891	-358.279694	-952.842346	953.366943	-217.422379	-940.047119	1210.719604	-217.311600	-656.925598	1110.016602	-226.753723	-728.052673	560.650085	-12.232983	-711.824707	474.588287	-56.801685	-757.825439	326.235260	12.843706	-828.806335	109.745445	-96.057457	-878.635742	107.228821	-151.676498	-707.406616	70.371742	-115.703674	-869.502014	555.678406	-441.726501	-872.402100	463.329895	-393.506378	-910.372559	240.890259	-409.869659	-944.698853	59.749794	-315.855377	-993.215637	51.879589	-266.576233	-808.571838	42.447968	-295.355957
